<svg xmlns="http://www.w3.org/2000/svg" xmlns:xlink="http://www.w3.org/1999/xlink" width="512" zoomAndPan="magnify" viewBox="0 0 384 119.999999" height="160" preserveAspectRatio="xMidYMid meet" version="1.0"><defs><g/></defs><g fill="#ffffff" fill-opacity="1"><g transform="translate(6.503908, 97.219789)"><g><path d="M 6 -76.71875 L 23.921875 -76.71875 L 23.921875 0 L 6 0 Z M 6 -76.71875 "/></g></g></g><g fill="#ffffff" fill-opacity="1"><g transform="translate(36.637791, 97.219789)"><g><path d="M 25.609375 1.265625 C 21.179688 1.265625 17.28125 0.0546875 13.90625 -2.359375 C 10.53125 -4.785156 7.894531 -8.125 6 -12.375 C 4.101562 -16.625 3.15625 -21.488281 3.15625 -26.96875 C 3.15625 -32.726562 4.101562 -37.769531 6 -42.09375 C 7.894531 -46.414062 10.53125 -49.820312 13.90625 -52.3125 C 17.28125 -54.8125 21.179688 -56.0625 25.609375 -56.0625 C 28.484375 -56.0625 31.132812 -55.515625 33.5625 -54.421875 C 35.988281 -53.335938 37.90625 -51.914062 39.3125 -50.15625 L 39.515625 -50.15625 L 39.515625 -78.828125 L 57.328125 -79.234375 L 57.328125 -16.75 C 57.328125 -15.34375 57.328125 -13.550781 57.328125 -11.375 C 57.328125 -9.195312 57.359375 -7.070312 57.421875 -5 C 57.492188 -2.925781 57.601562 -1.257812 57.75 0 L 45.3125 0 L 41.40625 -6.953125 L 41.203125 -6.953125 C 39.441406 -4.421875 37.28125 -2.414062 34.71875 -0.9375 C 32.15625 0.53125 29.117188 1.265625 25.609375 1.265625 Z M 31.078125 -12.640625 C 33.398438 -12.640625 35.332031 -13.394531 36.875 -14.90625 C 38.425781 -16.414062 39.304688 -18.085938 39.515625 -19.921875 L 39.515625 -38.359375 C 38.460938 -39.691406 37.160156 -40.691406 35.609375 -41.359375 C 34.066406 -42.023438 32.628906 -42.359375 31.296875 -42.359375 C 29.398438 -42.359375 27.695312 -41.742188 26.1875 -40.515625 C 24.675781 -39.285156 23.5 -37.546875 22.65625 -35.296875 C 21.8125 -33.046875 21.390625 -30.34375 21.390625 -27.1875 C 21.390625 -23.957031 21.8125 -21.253906 22.65625 -19.078125 C 23.5 -16.898438 24.65625 -15.28125 26.125 -14.21875 C 27.601562 -13.164062 29.253906 -12.640625 31.078125 -12.640625 Z M 31.078125 -12.640625 "/></g></g></g><g fill="#ffffff" fill-opacity="1"><g transform="translate(99.750375, 97.219789)"><g><path d="M 32.03125 1.265625 C 25.78125 1.265625 20.53125 0.160156 16.28125 -2.046875 C 12.03125 -4.265625 8.78125 -7.460938 6.53125 -11.640625 C 4.28125 -15.816406 3.15625 -20.859375 3.15625 -26.765625 C 3.15625 -30.554688 3.71875 -34.191406 4.84375 -37.671875 C 5.96875 -41.148438 7.65625 -44.273438 9.90625 -47.046875 C 12.15625 -49.828125 15.015625 -52.023438 18.484375 -53.640625 C 21.960938 -55.253906 26.054688 -56.0625 30.765625 -56.0625 C 35.617188 -56.0625 39.695312 -55.179688 43 -53.421875 C 46.300781 -51.671875 48.863281 -49.25 50.6875 -46.15625 C 52.507812 -43.0625 53.679688 -39.53125 54.203125 -35.5625 C 54.734375 -31.59375 54.648438 -27.394531 53.953125 -22.96875 L 12.546875 -22.96875 L 22.125 -30.03125 C 20.582031 -25.75 20.160156 -22.269531 20.859375 -19.59375 C 21.566406 -16.925781 23.148438 -14.957031 25.609375 -13.6875 C 28.066406 -12.425781 31.015625 -11.796875 34.453125 -11.796875 C 37.054688 -11.796875 39.78125 -12.054688 42.625 -12.578125 C 45.46875 -13.109375 47.976562 -13.691406 50.15625 -14.328125 L 51.953125 -2.21875 C 48.929688 -1.09375 45.660156 -0.234375 42.140625 0.359375 C 38.628906 0.960938 35.257812 1.265625 32.03125 1.265625 Z M 12.640625 -32.25 L 38.359375 -32.25 C 38.429688 -32.59375 38.46875 -32.867188 38.46875 -33.078125 C 38.46875 -33.296875 38.46875 -33.472656 38.46875 -33.609375 C 38.46875 -35.441406 38.21875 -37.113281 37.71875 -38.625 C 37.226562 -40.132812 36.382812 -41.378906 35.1875 -42.359375 C 34 -43.347656 32.351562 -43.84375 30.25 -43.84375 C 27.78125 -43.84375 25.773438 -43.085938 24.234375 -41.578125 C 22.691406 -40.066406 21.65625 -38.113281 21.125 -35.71875 C 20.601562 -33.332031 20.585938 -30.835938 21.078125 -28.234375 Z M 12.640625 -32.25 "/></g></g></g><g fill="#ffffff" fill-opacity="1"><g transform="translate(157.384066, 97.219789)"><g><path d="M 5.6875 -36.671875 C 5.6875 -40.109375 5.664062 -43.335938 5.625 -46.359375 C 5.59375 -49.378906 5.507812 -52.191406 5.375 -54.796875 L 20.546875 -55.21875 L 21.703125 -48.6875 L 22.234375 -48.6875 C 23.359375 -49.738281 24.796875 -50.828125 26.546875 -51.953125 C 28.304688 -53.078125 30.3125 -54.039062 32.5625 -54.84375 C 34.8125 -55.65625 37.269531 -56.0625 39.9375 -56.0625 C 43.3125 -56.0625 46.175781 -55.460938 48.53125 -54.265625 C 50.882812 -53.078125 52.78125 -51.425781 54.21875 -49.3125 C 55.65625 -47.207031 56.707031 -44.710938 57.375 -41.828125 C 58.039062 -38.953125 58.375 -35.863281 58.375 -32.5625 L 58.375 0 L 40.5625 0 L 40.5625 -32.140625 C 40.5625 -33.828125 40.367188 -35.285156 39.984375 -36.515625 C 39.597656 -37.742188 39.070312 -38.78125 38.40625 -39.625 C 37.738281 -40.46875 36.929688 -41.0625 35.984375 -41.40625 C 35.035156 -41.757812 34 -41.9375 32.875 -41.9375 C 31.46875 -41.9375 30.203125 -41.722656 29.078125 -41.296875 C 27.953125 -40.878906 26.929688 -40.316406 26.015625 -39.609375 C 25.109375 -38.910156 24.269531 -38.210938 23.5 -37.515625 L 23.5 0 L 5.6875 0 Z M 5.6875 -36.671875 "/></g></g></g><g fill="#ffffff" fill-opacity="1"><g transform="translate(221.444906, 97.219789)"><g><path d="M 25.71875 1.265625 C 22.132812 1.265625 19.195312 0.753906 16.90625 -0.265625 C 14.625 -1.285156 12.847656 -2.742188 11.578125 -4.640625 C 10.316406 -6.535156 9.441406 -8.816406 8.953125 -11.484375 C 8.460938 -14.148438 8.21875 -17.207031 8.21875 -20.65625 L 8.21875 -42.046875 L 1.578125 -42.046875 L 2.421875 -54.375 L 9.0625 -54.796875 L 10.109375 -67.328125 L 25.921875 -70.5 L 25.921875 -54.796875 L 37.9375 -54.796875 L 37.09375 -42.046875 L 25.921875 -42.046875 L 25.921875 -22.234375 C 25.921875 -20.410156 26.148438 -18.847656 26.609375 -17.546875 C 27.066406 -16.242188 27.820312 -15.238281 28.875 -14.53125 C 29.925781 -13.832031 31.398438 -13.484375 33.296875 -13.484375 C 34.066406 -13.484375 34.820312 -13.5 35.5625 -13.53125 C 36.300781 -13.570312 36.988281 -13.660156 37.625 -13.796875 L 37.71875 -0.421875 C 36.59375 -0.140625 34.851562 0.207031 32.5 0.625 C 30.15625 1.050781 27.894531 1.265625 25.71875 1.265625 Z M 25.71875 1.265625 "/></g></g></g><g fill="#ffffff" fill-opacity="1"><g transform="translate(262.009769, 97.219789)"><g><path d="M 5.90625 -54.796875 L 23.703125 -55.21875 L 23.703125 0 L 5.90625 0 Z M 14.75 -60.375 C 12.007812 -60.375 9.65625 -61.234375 7.6875 -62.953125 C 5.71875 -64.679688 4.734375 -66.953125 4.734375 -69.765625 C 4.734375 -72.566406 5.71875 -74.84375 7.6875 -76.59375 C 9.65625 -78.351562 12.007812 -79.234375 14.75 -79.234375 C 17.488281 -79.234375 19.84375 -78.351562 21.8125 -76.59375 C 23.78125 -74.84375 24.765625 -72.566406 24.765625 -69.765625 C 24.765625 -66.953125 23.78125 -64.679688 21.8125 -62.953125 C 19.84375 -61.234375 17.488281 -60.375 14.75 -60.375 Z M 14.75 -60.375 "/></g></g></g><g fill="#ffffff" fill-opacity="1"><g transform="translate(291.511492, 97.219789)"><g><path d="M 19.171875 0 L 30.875 -24.125 L 36.984375 -25.8125 L 56.171875 -54.796875 L 37.296875 -54.796875 L 25.390625 -30.671875 L 19.390625 -28.984375 L 0.203125 0 Z M 56.171875 0 L 36.984375 -28.984375 L 30.875 -30.671875 L 19.171875 -54.796875 L 0.203125 -54.796875 L 19.390625 -25.8125 L 25.390625 -24.125 L 37.296875 0 Z M 56.171875 0 "/></g></g></g><g fill="#ff4949" fill-opacity="1"><g transform="translate(347.882796, 97.219789)"><g><path d="M 15.90625 1.15625 C 12.957031 1.15625 10.484375 0.15625 8.484375 -1.84375 C 6.484375 -3.84375 5.484375 -6.351562 5.484375 -9.375 C 5.484375 -12.320312 6.484375 -14.816406 8.484375 -16.859375 C 10.484375 -18.898438 12.957031 -19.921875 15.90625 -19.921875 C 18.863281 -19.921875 21.359375 -18.898438 23.390625 -16.859375 C 25.429688 -14.816406 26.453125 -12.320312 26.453125 -9.375 C 26.453125 -6.351562 25.429688 -3.84375 23.390625 -1.84375 C 21.359375 0.15625 18.863281 1.15625 15.90625 1.15625 Z M 15.90625 1.15625 "/></g></g></g></svg>